# xmcd CD database file
#
# Track frame offsets:
#	150
#	17630
#	39675
#	52727
#	74055
#	90032
#	115297
#	133865
#	169222
#	200652
#	232765
#	260677
#	280322
#	313382
#
# Disc length: 4434 seconds
#
# Revision: 9
# Processed by: cddbd v1.5.2PL0 Copyright (c) Steve Scherf et al.
# Submitted via: CDex 1.70beta2
#
DISCID=ca11500e
DTITLE=IRON MAIDEN - LIVE AT DONINGTON [Disc 1]
DYEAR=1993
DGENRE=Heavy Metal
TTITLE0=Be Quick Or Be Dead
TTITLE1=The Number Of The Beast
TTITLE2=Wrathchild
TTITLE3=From Here To Eternity
TTITLE4=Can I Play With Madness
TTITLE5=Wasting Love
TTITLE6=Tailgunner
TTITLE7=The Evil That Men Do
TTITLE8=Afraid To Shoot Strangers
TTITLE9=Fear Of The Dark
TTITLE10=Bring Your DaughteR...To The Slaughter
TTITLE11=The Clairvoyant
TTITLE12=Heaven Can Wait
TTITLE13=Run To The Hills
EXTD=YEAR: 1993
EXTT0=
EXTT1=
EXTT2=
EXTT3=
EXTT4=
EXTT5=
EXTT6=
EXTT7=
EXTT8=
EXTT9=
EXTT10=
EXTT11=
EXTT12=
EXTT13=
PLAYORDER=
